# xmcd
#
# Track frame offsets:
#  150
#  12694
#  25908
#  39416
#  57501
#  74337
#  85690
#  97661
#  115769
#  127008
#  138226
#  151851
#  166734
#  181275
#  196479
#  214075
#
# Disc length: 3038 seconds
#
# Revision: 0
# Processed by: cddbd v1.5.2PL0 Copyright (c) Steve Scherf et al.
# Submitted via: Collectorz.com_Music_Collector 6.11
#
DISCID=d20bdc10
DTITLE=Lynn Anderson - Live From The Rose Garden
DYEAR=2005
DGENRE=
TTITLE0=Listen To A Country Song
TTITLE1=How Can I Unlove You
TTITLE2=What A Man My Man Is
TTITLE3=Under The Boardwalk
TTITLE4=Faithless Love
TTITLE5=Foggy Mountain Breakdown
TTITLE6=Even Cowgirls Get The Blues
TTITLE7=Someday Soon
TTITLE8=Ride, Ride, Ride
TTITLE9=That's A No No
TTITLE10=Top Of The World
TTITLE11=Cry
TTITLE12=Rose Garden
TTITLE13=Paradise
TTITLE14=The Worst Is Yet To Come
TTITLE15=Rocky Top
EXTD=
EXTT0=
EXTT1=
EXTT2=
EXTT3=
EXTT4=
EXTT5=
EXTT6=
EXTT7=
EXTT8=
EXTT9=
EXTT10=
EXTT11=
EXTT12=
EXTT13=
EXTT14=
EXTT15=
PLAYORDER=
